<svg aria-hidden="true" style="position: absolute; width: 0; height: 0; overflow: hidden;" version="1.1" xmlns="http://www.w3.org/2000/svg" xmlns:xlink="http://www.w3.org/1999/xlink">
<defs>
<symbol id="icon-hack" viewBox="0 0 32 32">
<path d="M30.3 12.5l-8.5 8.5-5.7-5.7-11.3 11.3-2.8-2.8 19.8-19.8 8.5 8.5z"></path>
</symbol>
<symbol id="icon-folder-open-o" viewBox="0 0 30 28">
<path d="M27.828 14.547c0-0.438-0.484-0.547-0.828-0.547h-17c-0.828 0-1.922 0.516-2.453 1.156l-4.594 5.672c-0.141 0.187-0.281 0.391-0.281 0.625 0 0.438 0.484 0.547 0.828 0.547h17c0.828 0 1.922-0.516 2.453-1.172l4.594-5.672c0.141-0.172 0.281-0.375 0.281-0.609zM10 12h12v-2.5c0-0.828-0.672-1.5-1.5-1.5h-9c-0.828 0-1.5-0.672-1.5-1.5v-1c0-0.828-0.672-1.5-1.5-1.5h-5c-0.828 0-1.5 0.672-1.5 1.5v13.328l4-4.922c0.906-1.109 2.578-1.906 4-1.906zM29.828 14.547c0 0.688-0.297 1.344-0.719 1.875l-4.609 5.672c-0.891 1.094-2.594 1.906-4 1.906h-17c-1.922 0-3.5-1.578-3.5-3.5v-15c0-1.922 1.578-3.5 3.5-3.5h5c1.922 0 3.5 1.578 3.5 3.5v0.5h8.5c1.922 0 3.5 1.578 3.5 3.5v2.5h3c1.062 0 2.125 0.484 2.594 1.484 0.156 0.328 0.234 0.688 0.234 1.062z"></path>
</symbol>
<symbol id="icon-money-bag" viewBox="0 0 32 32">
<path d="M14.017 9.302h3.934v-1.476h-3.934v1.476zM17.922 9.793h-3.905c0 0-6.425 6.333-6.425 12.542 0 6.579 6.732 7.102 6.732 7.102s2.008 0.333 3.257 0c0 0 6.826-0.8 6.826-7.070 0.001-6.272-6.485-12.574-6.485-12.574zM18.211 23.123c-0.158 0.32-0.371 0.588-0.643 0.802-0.271 0.215-0.588 0.376-0.949 0.484-0.046 0.014-0.096 0.019-0.143 0.031v1.092h-0.983v-0.964c-0.012 0.001-0.024 0.003-0.036 0.003-0.279 0-0.538-0.022-0.778-0.067s-0.45-0.101-0.634-0.164c-0.184-0.064-0.337-0.131-0.459-0.201s-0.212-0.132-0.266-0.186c-0.055-0.054-0.093-0.132-0.116-0.234-0.022-0.103-0.034-0.249-0.034-0.441 0-0.129 0.004-0.237 0.013-0.325s0.021-0.158 0.041-0.213c0.019-0.055 0.043-0.093 0.074-0.116 0.031-0.022 0.068-0.034 0.109-0.034 0.059 0 0.141 0.034 0.247 0.103s0.242 0.145 0.409 0.228c0.167 0.084 0.365 0.159 0.597 0.229 0.231 0.068 0.499 0.103 0.803 0.103 0.2 0 0.379-0.024 0.537-0.072s0.293-0.115 0.403-0.203c0.111-0.088 0.195-0.196 0.253-0.325 0.059-0.13 0.088-0.273 0.088-0.433 0-0.183-0.051-0.34-0.15-0.472-0.1-0.131-0.231-0.247-0.391-0.35-0.16-0.102-0.342-0.197-0.546-0.287s-0.415-0.185-0.631-0.284c-0.217-0.1-0.427-0.213-0.631-0.341-0.204-0.127-0.387-0.278-0.547-0.455s-0.29-0.387-0.391-0.628c-0.1-0.241-0.149-0.531-0.149-0.868 0-0.388 0.072-0.728 0.215-1.021s0.338-0.537 0.581-0.73c0.244-0.193 0.531-0.338 0.862-0.434 0.17-0.049 0.346-0.085 0.526-0.108v-1.035h0.983v1.034c0.040 0.005 0.079 0.003 0.118 0.009 0.191 0.029 0.371 0.068 0.537 0.118s0.314 0.105 0.443 0.167 0.215 0.113 0.256 0.155c0.043 0.041 0.070 0.076 0.086 0.105 0.014 0.029 0.025 0.068 0.037 0.116 0.010 0.048 0.018 0.108 0.021 0.182 0.004 0.072 0.006 0.163 0.006 0.271 0 0.121-0.004 0.224-0.010 0.308-0.006 0.083-0.016 0.152-0.031 0.206-0.014 0.055-0.035 0.094-0.062 0.119s-0.062 0.037-0.109 0.037c-0.045 0-0.119-0.028-0.219-0.086-0.1-0.059-0.223-0.121-0.367-0.189-0.146-0.068-0.314-0.13-0.506-0.187-0.193-0.056-0.403-0.083-0.631-0.083-0.18 0-0.336 0.021-0.469 0.065-0.134 0.043-0.245 0.104-0.335 0.18-0.089 0.077-0.156 0.17-0.199 0.277-0.044 0.107-0.065 0.222-0.065 0.342 0 0.18 0.049 0.335 0.146 0.466s0.229 0.248 0.394 0.35c0.164 0.103 0.351 0.198 0.56 0.287 0.208 0.090 0.42 0.185 0.637 0.284 0.217 0.101 0.428 0.214 0.637 0.341s0.395 0.279 0.557 0.456 0.293 0.385 0.393 0.624c0.1 0.24 0.15 0.521 0.15 0.847-0.001 0.422-0.081 0.794-0.239 1.115zM17.891 7.334l1.998-4.919c0 0-1.26 1.046-1.998 1.046s-1.907-1.015-1.907-1.015-1.26 1.015-1.998 1.015c-0.737 0-1.937-0.984-1.937-0.984l2.029 4.857h3.813z"></path>
</symbol>
<symbol id="icon-grid" viewBox="0 0 24 24">
<path d="M3 2c-0.552 0-1 0.448-1 1v7c0 0.552 0.448 1 1 1h7c0.552 0 1-0.448 1-1v-7c0-0.552-0.448-1-1-1zM4 4h5v5h-5zM14 2c-0.552 0-1 0.448-1 1v7c0 0.552 0.448 1 1 1h7c0.552 0 1-0.448 1-1v-7c0-0.552-0.448-1-1-1zM15 4h5v5h-5zM14 13c-0.552 0-1 0.448-1 1v7c0 0.552 0.448 1 1 1h7c0.552 0 1-0.448 1-1v-7c0-0.552-0.448-1-1-1zM15 15h5v5h-5zM3 13c-0.552 0-1 0.448-1 1v7c0 0.552 0.448 1 1 1h7c0.552 0 1-0.448 1-1v-7c0-0.552-0.448-1-1-1zM4 15h5v5h-5z"></path>
</symbol>
<symbol id="icon-download" viewBox="0 0 24 24">
<path d="M20 15v4c0 0.276-0.111 0.525-0.293 0.707s-0.431 0.293-0.707 0.293h-14c-0.276 0-0.525-0.111-0.707-0.293s-0.293-0.431-0.293-0.707v-4c0-0.552-0.448-1-1-1s-1 0.448-1 1v4c0 0.828 0.337 1.58 0.879 2.121s1.293 0.879 2.121 0.879h14c0.828 0 1.58-0.337 2.121-0.879s0.879-1.293 0.879-2.121v-4c0-0.552-0.448-1-1-1s-1 0.448-1 1zM13 12.586v-9.586c0-0.552-0.448-1-1-1s-1 0.448-1 1v9.586l-3.293-3.293c-0.391-0.391-1.024-0.391-1.414 0s-0.391 1.024 0 1.414l5 5c0.092 0.092 0.202 0.166 0.324 0.217s0.253 0.076 0.383 0.076c0.256 0 0.512-0.098 0.707-0.293l5-5c0.391-0.391 0.391-1.024 0-1.414s-1.024-0.391-1.414 0z"></path>
</symbol>
<symbol id="icon-forward" viewBox="0 0 18 18">
<path d="M16.711 8.29l-6-5.996c-0.391-0.391-1.026-0.391-1.417 0s-0.391 1.025 0 1.417l4.293 4.29h-11.59c-0.553 0-1.001 0.448-1.001 1s0.448 1 1.001 1h11.59l-4.292 4.29c-0.391 0.391-0.391 1.025 0.001 1.417s1.026 0.391 1.417 0l6-5.997c0.196-0.196 0.294-0.453 0.294-0.71s-0.097-0.514-0.294-0.71z"></path>
</symbol>
</defs>
</svg>
